<svg xmlns="http://www.w3.org/2000/svg" viewBox="0 0 408.43562 43.1455">
	<title>
		TMW Unlimited
	</title>
	<path d="M147.383 0h7.38v24.553c0 1.418.066 2.855.206 4.308a9.747 9.747 0 0 0 1.18 3.927 7.475 7.475 0 0 0 2.952 2.86 14.396 14.396 0 0 0 11.153 0 7.485 7.485 0 0 0 2.95-2.86 9.888 9.888 0 0 0 1.18-3.926q.204-2.178.208-4.307V0h7.376v26.974a18.48 18.48 0 0 1-1.24 7.08 13.655 13.655 0 0 1-3.51 5.05 14.702 14.702 0 0 1-5.462 3.04 25.506 25.506 0 0 1-14.164 0 14.7 14.7 0 0 1-5.457-3.04 13.637 13.637 0 0 1-3.514-5.05 18.55 18.55 0 0 1-1.24-7.08zM185.91 11.628h6.375v4.485l.117.12a11.302 11.302 0 0 1 4.015-3.985 10.685 10.685 0 0 1 5.487-1.447 11.414 11.414 0 0 1 7.91 2.598q2.89 2.598 2.89 7.79v20.955h-6.726V22.96q-.12-3.6-1.534-5.224a5.584 5.584 0 0 0-4.428-1.623 7.284 7.284 0 0 0-3.07.62 6.642 6.642 0 0 0-2.3 1.712 8.137 8.137 0 0 0-1.476 2.568 9.19 9.19 0 0 0-.53 3.128v18.003h-6.73zM216.77 0h6.728v42.143h-6.727zM227.8 11.628h6.725v30.515H227.8zM238.807 11.628h6.375v4.25h.175a17.968 17.968 0 0 1 1.653-2.067 9.11 9.11 0 0 1 1.978-1.593 10.138 10.138 0 0 1 2.506-1.03 12.463 12.463 0 0 1 3.25-.386 11.018 11.018 0 0 1 5.16 1.242 7.014 7.014 0 0 1 3.398 3.835 13.556 13.556 0 0 1 3.952-3.718 10.675 10.675 0 0 1 5.605-1.36q4.84 0 7.525 2.363 2.69 2.36 2.684 7.906v21.073h-6.726V24.316q0-1.828-.118-3.334a6.743 6.743 0 0 0-.68-2.595 3.858 3.858 0 0 0-1.683-1.684 6.67 6.67 0 0 0-3.068-.59q-3.425 0-4.957 2.125a10.15 10.15 0 0 0-1.533 6.022v17.883h-6.73V22.547a8.304 8.304 0 0 0-1.15-4.81q-1.152-1.622-4.22-1.624a6.256 6.256 0 0 0-4.633 2.067 7.652 7.652 0 0 0-1.476 2.478 9.446 9.446 0 0 0-.56 3.364v18.12h-6.73zM296.006 11.628h5.076v-9.15h6.73v9.15h6.08v5.017h-6.08v16.29a15.806 15.806 0 0 0 .088 1.828 3.13 3.13 0 0 0 .412 1.3 1.97 1.97 0 0 0 .975.798 4.807 4.807 0 0 0 1.77.267c.472 0 .944-.01 1.416-.032a7.182 7.182 0 0 0 1.418-.204v5.192l-2.185.238a20.357 20.357 0 0 1-2.184.117 14.92 14.92 0 0 1-4.274-.502 5.705 5.705 0 0 1-2.54-1.475 5.09 5.09 0 0 1-1.24-2.45 18.188 18.188 0 0 1-.384-3.365v-18h-5.076zM321.616 28.627a11.704 11.704 0 0 0 .503 3.424 8.424 8.424 0 0 0 1.503 2.89 7.198 7.198 0 0 0 2.54 1.978 8.392 8.392 0 0 0 3.657.738 8.088 8.088 0 0 0 4.752-1.267 7.515 7.515 0 0 0 2.684-3.808h6.375a12.64 12.64 0 0 1-4.956 7.7 13.48 13.48 0 0 1-4.102 2.005 16.568 16.568 0 0 1-4.752.682 16.126 16.126 0 0 1-6.373-1.183 13.16 13.16 0 0 1-4.692-3.305 13.993 13.993 0 0 1-2.894-5.076 20.76 20.76 0 0 1-.97-6.492 18.342 18.342 0 0 1 1.032-6.167 15.777 15.777 0 0 1 2.952-5.134 13.834 13.834 0 0 1 10.77-4.812 13.69 13.69 0 0 1 6.463 1.508 14.205 14.205 0 0 1 4.75 3.982 16.174 16.174 0 0 1 2.746 5.696 17.487 17.487 0 0 1 .442 6.64zm15.7-4.428a10.902 10.902 0 0 0-.68-3.07 8.222 8.222 0 0 0-1.53-2.568 7.65 7.65 0 0 0-2.363-1.77 6.99 6.99 0 0 0-3.1-.68 8.062 8.062 0 0 0-3.213.62 7.404 7.404 0 0 0-2.483 1.71 8.624 8.624 0 0 0-1.652 2.57 9 9 0 0 0-.68 3.187zM376.39 42.143h-6.375V38.01h-.117a7.994 7.994 0 0 1-3.956 3.806 13.4 13.4 0 0 1-5.49 1.15 14.56 14.56 0 0 1-6.28-1.266 12.493 12.493 0 0 1-4.46-3.454 14.725 14.725 0 0 1-2.654-5.165 22.298 22.298 0 0 1-.886-6.403 20.476 20.476 0 0 1 1.12-7.142 14.255 14.255 0 0 1 2.982-4.957 11.528 11.528 0 0 1 4.25-2.86 13.562 13.562 0 0 1 4.867-.917 16.175 16.175 0 0 1 2.893.27 12.792 12.792 0 0 1 2.834.852 11.18 11.18 0 0 1 2.508 1.507 8.344 8.344 0 0 1 1.917 2.152h.12V0h6.73zM352.9 27.208a14.73 14.73 0 0 0 .503 3.837 10.487 10.487 0 0 0 1.537 3.365 7.456 7.456 0 0 0 6.398 3.248 7.547 7.547 0 0 0 3.866-.948 7.944 7.944 0 0 0 2.656-2.478 11.194 11.194 0 0 0 1.535-3.45 15.4 15.4 0 0 0 .503-3.926q0-5.078-2.273-7.91a7.485 7.485 0 0 0-6.166-2.833 7.602 7.602 0 0 0-3.986.975 8.177 8.177 0 0 0-2.656 2.538 10.497 10.497 0 0 0-1.476 3.54 18.476 18.476 0 0 0-.443 4.042M234.68 3.535A3.517 3.517 0 1 1 231.16.018a3.518 3.518 0 0 1 3.517 3.517M293.892 3.535a3.517 3.517 0 1 1-3.518-3.517 3.518 3.518 0 0 1 3.518 3.517M387.328 38.623a3.516 3.516 0 1 1-3.516-3.516 3.518 3.518 0 0 1 3.516 3.516M397.882 38.623a3.517 3.517 0 1 1-3.518-3.516 3.52 3.52 0 0 1 3.518 3.516M408.436 38.623a3.517 3.517 0 1 1-3.518-3.516 3.52 3.52 0 0 1 3.518 3.516M287.012 11.628h6.725v30.515h-6.725z"/>
	<path fill="currentColor" d="M85.418 0h7.493l7.613 32.217h.118L109.14 0h7.552l8.26 32.217h.12L132.916 0h7.494l-11.623 42.13h-7.494l-8.438-32.217h-.118l-8.614 32.217H96.51z"/>
	<path fill="currentColor" d="M85.418 0h7.493l7.613 32.217h.118L109.14 0h7.552l8.26 32.217h.12L132.916 0h7.494l-11.623 42.13h-7.494l-8.438-32.217h-.118l-8.614 32.217H96.51zM0 0h34.105v6.372H20.71V42.13h-7.375V6.372H0zM38.274 0H48.66l11.623 32.984h.118L71.73 0h10.267v42.13h-7.02V9.618h-.12L63.175 42.13h-6.077L45.414 9.618h-.118V42.13h-7.022z"/>
</svg>
