<?xml version="1.0" encoding="UTF-8" standalone="no"?>
<svg width="1022px" height="719px" viewBox="0 0 1022 719" version="1.1" xmlns="http://www.w3.org/2000/svg" xmlns:xlink="http://www.w3.org/1999/xlink">
    <g stroke="none" stroke-width="1" fill="none" fill-rule="evenodd">
        <g fill="#D0011B">
            <path d="M1011.25,155.562 C1011.25,155.562 1001.27,85.173 970.642,54.176 C931.8,13.493 888.262,13.291 868.296,10.91 C725.359,0.577 510.946,0.577 510.946,0.577 L510.502,0.577 C510.502,0.577 296.094,0.577 153.152,10.91 C133.185,13.291 89.663,13.493 50.807,54.176 C20.181,85.173 10.215,155.562 10.215,155.562 C10.215,155.562 0,238.222 0,320.881 L0,398.374 C0,481.032 10.215,563.691 10.215,563.691 C10.215,563.691 20.181,634.081 50.807,665.078 C89.663,705.762 140.703,704.475 163.436,708.739 C245.153,716.575 510.725,719 510.725,719 C510.725,719 725.359,718.677 868.296,708.345 C888.262,705.963 931.8,705.762 970.642,665.078 C1001.27,634.081 1011.25,563.691 1011.25,563.691 C1011.25,563.691 1021.45,481.032 1021.45,398.374 L1021.45,320.881 C1021.45,238.222 1011.25,155.562 1011.25,155.562 Z M405.272,492.281 L405.225,205.281 L681.225,349.281 L405.272,492.281 Z"></path>
        </g>
    </g>
</svg>
