<?xml version="1.0" encoding="UTF-8" standalone="no"?>
<svg width="275px" height="275px" viewBox="0 0 275 275" version="1.1" xmlns="http://www.w3.org/2000/svg" xmlns:xlink="http://www.w3.org/1999/xlink">
    <g stroke="none" stroke-width="1" fill="none" fill-rule="evenodd">
        <g >
            <path d="M274.857,137.819 C274.857,213.587 213.434,275.009 137.666,275.009 C61.898,275.009 0.476,213.587 0.476,137.819 C0.476,62.05 61.898,0.628 137.666,0.628 C213.434,0.628 274.857,62.05 274.857,137.819" fill="#FFFFFF"></path>
            <path d="M137.507,15.849 C70.145,15.849 15.537,70.457 15.537,137.819 C15.537,189.49 47.685,233.624 93.057,251.396 C91.991,241.746 91.028,226.944 93.481,216.407 C95.696,206.89 107.783,155.78 107.783,155.78 C107.783,155.78 104.134,148.475 104.134,137.673 C104.134,120.714 113.965,108.052 126.204,108.052 C136.61,108.052 141.636,115.866 141.636,125.233 C141.636,135.698 134.974,151.344 131.535,165.842 C128.662,177.985 137.623,187.886 149.596,187.886 C171.276,187.886 187.939,165.025 187.939,132.031 C187.939,102.828 166.956,82.409 136.991,82.409 C102.287,82.409 81.917,108.44 81.917,135.34 C81.917,145.823 85.956,157.064 90.994,163.175 C91.99,164.383 92.136,165.441 91.839,166.672 C90.914,170.527 88.856,178.812 88.453,180.506 C87.921,182.739 86.684,183.212 84.374,182.137 C69.139,175.045 59.616,152.773 59.616,134.885 C59.616,96.41 87.571,61.076 140.205,61.076 C182.515,61.076 215.397,91.225 215.397,131.519 C215.397,173.556 188.893,207.385 152.107,207.385 C139.746,207.385 128.128,200.964 124.151,193.379 C124.151,193.379 118.035,216.668 116.553,222.373 C113.798,232.967 106.365,246.247 101.392,254.348 C112.805,257.882 124.933,259.788 137.507,259.788 C204.869,259.788 259.477,205.181 259.477,137.819 C259.477,70.457 204.869,15.849 137.507,15.849" fill="#AA2529"></path>
        </g>
    </g>
</svg>
