<?xml version="1.0" encoding="UTF-8" standalone="no"?>
<svg viewBox="0 0 37 37" version="1.1" xmlns="http://www.w3.org/2000/svg" xmlns:xlink="http://www.w3.org/1999/xlink">
    <g stroke="none" stroke-width="1" fill="none" fill-rule="evenodd">
        <g fill="#3f729b">
            <path d="M5.2,0.7 L31.7,0.7 C34.2,0.7 36.3,2.8 36.3,5.3 L36.3,31.8 C36.3,34.3 34.2,36.4 31.7,36.4 L5.2,36.4 C2.7,36.4 0.6,34.3 0.6,31.8 L0.6,5.2 C0.7,2.7 2.7,0.7 5.2,0.7 L5.2,0.7 Z M26.7,4.6 C25.8,4.6 25.1,5.3 25.1,6.2 L25.1,10 C25.1,10.9 25.8,11.6 26.7,11.6 L30.7,11.6 C31.6,11.6 32.3,10.9 32.3,10 L32.3,6.2 C32.3,5.3 31.6,4.6 30.7,4.6 L26.7,4.6 L26.7,4.6 Z M32.3,15.7 L29.2,15.7 C29.5,16.7 29.7,17.7 29.7,18.8 C29.7,24.7 24.7,29.5 18.6,29.5 C12.5,29.5 7.5,24.7 7.5,18.8 C7.5,17.7 7.7,16.7 8,15.7 L4.7,15.7 L4.7,30.8 C4.7,31.6 5.3,32.2 6.1,32.2 L31,32.2 C31.8,32.2 32.4,31.6 32.4,30.8 L32.4,15.7 L32.3,15.7 Z M18.5,11.5 C14.5,11.5 11.3,14.6 11.3,18.4 C11.3,22.2 14.5,25.3 18.5,25.3 C22.5,25.3 25.7,22.2 25.7,18.4 C25.7,14.6 22.5,11.5 18.5,11.5 L18.5,11.5 Z"></path>
        </g>
    </g>
</svg>
