<?xml version="1.0" encoding="UTF-8" standalone="no"?>
<svg viewBox="0 0 18 12" version="1.1" xmlns="http://www.w3.org/2000/svg" xmlns:xlink="http://www.w3.org/1999/xlink">
	<path fill="#aaa" d="M1.574,1.286 C2.062,1.548 8.822,5.18 9.074,5.315 C9.326,5.45 9.652,5.514 9.98,5.514 C10.308,5.514 10.634,5.45 10.886,5.315 C11.138,5.18 17.898,1.548 18.386,1.286 C18.875,1.023 19.337,0 18.44,0 L1.521,0 C0.624,0 1.086,1.023 1.574,1.286 L1.574,1.286 Z M18.613,3.489 C18.058,3.778 11.226,7.338 10.886,7.516 C10.546,7.694 10.308,7.715 9.98,7.715 C9.652,7.715 9.414,7.694 9.074,7.516 C8.734,7.338 1.941,3.777 1.386,3.488 C0.996,3.284 1,3.523 1,3.707 L1,11 C1,11.42 1.566,12 2,12 L18,12 C18.434,12 19,11.42 19,11 L19,3.708 C19,3.524 19.004,3.285 18.613,3.489 L18.613,3.489 Z"></path>
</svg>
