<svg xmlns="http://www.w3.org/2000/svg" viewBox="0 0 30 30"><path fill="#cc181e" d="M24.311 11.172s-.188-1.317-.758-1.898c-.723-.764-1.533-.769-1.905-.813-2.656-.193-6.646-.193-6.646-.193h-.006s-3.989 0-6.646.193c-.371.044-1.183.049-1.905.812-.57.581-.757 1.898-.757 1.898s-.188 1.552-.188 3.102v1.452c0 1.547.188 3.098.188 3.098s.187 1.318.757 1.9c.723.764 1.672.737 2.095.819 1.521.146 6.46.188 6.46.188s3.992-.004 6.65-.197c.371-.045 1.182-.049 1.904-.812.569-.582.756-1.9.756-1.9s.188-1.549.188-3.096v-1.453c0-1.549-.187-3.1-.187-3.1zm-11.295 6.482v-5.391l5.046 2.643-5.046 2.748z"/></svg>
