<?xml version="1.0" encoding="UTF-8" standalone="no"?>
<svg width="963px" height="272px" viewBox="0 0 963 272" version="1.1" xmlns="http://www.w3.org/2000/svg" xmlns:xlink="http://www.w3.org/1999/xlink" xmlns:sketch="http://www.bohemiancoding.com/sketch/ns">
    <!-- Generator: Sketch 3.4.4 (17249) - http://www.bohemiancoding.com/sketch -->
    <title>Kickoff</title>
    <desc>Created with Sketch.</desc>
    <path d="M115.384,214 L167.8,214 L114.52,113.2 L203.224,12.4 L146.2,12.4 L64.408,105.136 L80.824,12.4 L36.184,12.4 L0.76,214 L45.4,214 L62.968,114.064 L115.384,214 Z M185.944,214 L227.704,214 L253.912,64.24 L212.152,64.24 L185.944,214 Z M215.896,42.64 L257.656,42.64 L265.144,0.88 L223.384,0.88 L215.896,42.64 Z M358.456,157.84 L356.44,169.36 C355.288,175.12 352.12,178 346.36,178 L316.12,178 C310.36,178 307.768,175.12 308.92,169.36 L319.576,108.88 C320.44,103.12 323.896,100.24 329.656,100.24 L359.896,100.24 C365.656,100.24 367.96,103.12 367.096,108.88 L365.08,120.4 L406.84,120.4 L408.856,109.456 C413.464,82.384 398.488,64.24 371.416,64.24 L330.52,64.24 C303.736,64.24 282.424,82.384 277.816,109.456 L267.16,168.784 C262.552,195.856 277.528,214 304.312,214 L345.208,214 C372.28,214 393.592,195.856 398.2,168.784 L400.216,157.84 L358.456,157.84 Z M510.52,214 L561.496,214 L522.04,139.12 L587.704,64.24 L536.728,64.24 L474.808,134.8 L498.424,0.88 L456.664,0.88 L419.224,214 L460.984,214 L473.368,143.728 L510.52,214 Z" id="Kick" fill="#FFFFFF" sketch:type="MSShapeGroup"></path>
    <path d="M668.92,169.36 C667.768,175.12 664.6,178 658.84,178 L628.6,178 C622.84,178 620.248,175.12 621.4,169.36 L632.056,108.88 C632.92,103.12 636.376,100.24 642.136,100.24 L672.376,100.24 C678.136,100.24 680.44,103.12 679.576,108.88 L668.92,169.36 Z M721.336,109.456 C725.944,82.384 710.968,64.24 683.896,64.24 L643,64.24 C616.216,64.24 594.904,82.384 590.296,109.456 L579.64,168.784 C575.032,195.856 590.008,214 616.792,214 L657.688,214 C684.76,214 706.072,195.856 710.68,168.784 L721.336,109.456 Z M916.888,45.52 C917.752,39.76 921.208,36.88 926.968,36.88 L955.768,36.88 L962.104,0.88 L927.832,0.88 C901.048,0.88 879.736,19.024 874.84,46.096 L871.672,64.24 L816.952,64.24 L820.408,45.52 C821.272,39.76 824.728,36.88 830.488,36.88 L859.288,36.88 L865.624,0.88 L831.352,0.88 C804.568,0.88 783.256,19.024 778.36,46.096 L775.192,64.24 L743.512,64.24 L737.176,100.24 L768.856,100.24 L738.904,271.6 L780.664,271.6 L810.616,100.24 L865.336,100.24 L835.384,271.6 L877.144,271.6 L907.096,100.24 L944.536,100.24 L950.872,64.24 L913.432,64.24 L916.888,45.52 Z" id="off" fill="#FE7C08" sketch:type="MSShapeGroup"></path>
</svg>
