
<svg width="410px" height="44px" viewBox="0 0 410 44" version="1.1" xmlns="http://www.w3.org/2000/svg" xmlns:xlink="http://www.w3.org/1999/xlink" stroke="none" stroke-width="1" fill-rule="evenodd" fill="currentColor">
	<title>TMW Unlimited</title>
	<polyline points="86.145 0.787 93.638 0.787 101.25 33.004 101.368 33.004 109.865 0.787 117.418 0.787 125.679 33.004 125.797 33.004 133.644 0.787 141.138 0.787 129.514 42.917 122.02 42.917 113.582 10.7 113.465 10.7 104.85 42.917 97.238 42.917 86.145 0.787"></polyline>
	<polyline points="0.727 0.787 34.832 0.787 34.832 7.16 21.438 7.16 21.438 42.917 14.062 42.917 14.062 7.16 0.727 7.16 0.727 0.787"></polyline>
	<polyline points="39.001 0.787 49.386 0.787 61.01 33.772 61.129 33.772 72.458 0.787 82.725 0.787 82.725 42.917 75.703 42.917 75.703 10.406 75.585 10.406 63.902 42.917 57.824 42.917 46.141 10.406 46.023 10.406 46.023 42.917 39.001 42.917 39.001 0.787"></polyline>
	<path d="M148.11,0.788 L155.491,0.788 L155.491,25.34 C155.491,26.758 155.556,28.196 155.696,29.649 C155.831,31.106 156.225,32.413 156.878,33.574 C157.524,34.736 158.51,35.69 159.829,36.435 C161.145,37.186 163.006,37.559 165.405,37.559 C167.805,37.559 169.665,37.186 170.982,36.435 C172.302,35.69 173.284,34.736 173.932,33.574 C174.581,32.413 174.973,31.106 175.113,29.649 C175.249,28.196 175.32,26.758 175.32,25.34 L175.32,0.788 L182.696,0.788 L182.696,27.761 C182.696,30.475 182.285,32.835 181.457,34.841 C180.632,36.849 179.46,38.53 177.946,39.89 C176.43,41.246 174.612,42.258 172.485,42.93 C170.363,43.598 168.002,43.933 165.405,43.933 C162.807,43.933 160.447,43.598 158.321,42.93 C156.198,42.258 154.378,41.246 152.864,39.89 C151.347,38.53 150.177,36.849 149.35,34.841 C148.526,32.835 148.11,30.475 148.11,27.761 L148.11,0.788"></path>
	<path d="M186.638,12.415 L193.013,12.415 L193.013,16.901 L193.13,17.02 C194.153,15.327 195.493,14.001 197.144,13.035 C198.798,12.071 200.626,11.588 202.632,11.588 C205.975,11.588 208.614,12.455 210.542,14.186 C212.469,15.917 213.432,18.515 213.432,21.977 L213.432,42.93 L206.705,42.93 L206.705,23.748 C206.626,21.348 206.115,19.607 205.172,18.524 C204.227,17.444 202.751,16.901 200.743,16.901 C199.604,16.901 198.579,17.106 197.675,17.521 C196.768,17.936 196.002,18.504 195.374,19.233 C194.744,19.963 194.255,20.817 193.897,21.8 C193.544,22.785 193.367,23.828 193.367,24.928 L193.367,42.93 L186.638,42.93 L186.638,12.415"></path>
	<polygon points="217.499 42.93 224.225 42.93 224.225 0.787 217.499 0.787"></polygon>
	<polygon points="228.527 42.93 235.252 42.93 235.252 12.415 228.527 12.415"></polygon>
	<path d="M239.534,12.415 L245.909,12.415 L245.909,16.664 L246.085,16.664 C246.597,15.917 247.15,15.231 247.737,14.598 C248.327,13.971 248.985,13.44 249.716,13.004 C250.443,12.574 251.28,12.229 252.222,11.973 C253.168,11.717 254.248,11.588 255.471,11.588 C257.317,11.588 259.04,12 260.633,12.829 C262.227,13.657 263.358,14.932 264.029,16.664 C265.169,15.091 266.485,13.852 267.981,12.947 C269.476,12.043 271.344,11.588 273.587,11.588 C276.813,11.588 279.322,12.376 281.112,13.95 C282.905,15.523 283.797,18.161 283.797,21.857 L283.797,42.93 L277.071,42.93 L277.071,25.104 C277.071,23.885 277.032,22.773 276.953,21.769 C276.875,20.766 276.648,19.901 276.272,19.174 C275.899,18.447 275.339,17.884 274.591,17.491 C273.844,17.099 272.819,16.901 271.522,16.901 C269.239,16.901 267.589,17.61 266.565,19.026 C265.542,20.441 265.032,22.447 265.032,25.047 L265.032,42.93 L258.304,42.93 L258.304,23.334 C258.304,21.209 257.919,19.607 257.151,18.524 C256.384,17.443 254.977,16.901 252.932,16.901 C252.064,16.901 251.228,17.078 250.423,17.432 C249.616,17.786 248.908,18.297 248.3,18.967 C247.688,19.635 247.197,20.462 246.823,21.446 C246.45,22.43 246.263,23.551 246.263,24.81 L246.263,42.93 L239.534,42.93 L239.534,12.415"></path>
	<path d="M296.733,12.415 L301.809,12.415 L301.809,3.266 L308.538,3.266 L308.538,12.415 L314.618,12.415 L314.618,17.432 L308.538,17.432 L308.538,33.722 C308.538,34.43 308.567,35.042 308.628,35.55 C308.686,36.064 308.823,36.496 309.04,36.849 C309.255,37.204 309.58,37.47 310.014,37.649 C310.444,37.824 311.037,37.914 311.785,37.914 C312.257,37.914 312.728,37.905 313.2,37.882 C313.673,37.864 314.144,37.793 314.618,37.678 L314.618,42.87 C313.87,42.95 313.14,43.029 312.432,43.108 C311.724,43.184 310.999,43.225 310.249,43.225 C308.479,43.225 307.055,43.055 305.973,42.722 C304.889,42.389 304.044,41.897 303.432,41.247 C302.822,40.597 302.41,39.781 302.194,38.797 C301.976,37.814 301.847,36.693 301.809,35.433 L301.809,17.432 L296.733,17.432 L296.733,12.415"></path>
	<path d="M338.044,24.987 C337.964,23.926 337.739,22.903 337.364,21.916 C336.991,20.934 336.479,20.078 335.833,19.35 C335.18,18.621 334.393,18.032 333.471,17.579 C332.545,17.129 331.513,16.901 330.372,16.901 C329.19,16.901 328.118,17.108 327.157,17.521 C326.19,17.936 325.365,18.504 324.675,19.231 C323.99,19.962 323.436,20.817 323.022,21.799 C322.61,22.784 322.384,23.845 322.344,24.987 L338.044,24.987 L338.044,24.987 Z M322.344,29.414 C322.344,30.596 322.511,31.736 322.847,32.838 C323.18,33.938 323.682,34.903 324.35,35.727 C325.019,36.556 325.865,37.215 326.889,37.705 C327.911,38.196 329.133,38.444 330.548,38.444 C332.515,38.444 334.098,38.022 335.3,37.176 C336.497,36.328 337.395,35.06 337.983,33.37 L344.358,33.37 C344.005,35.02 343.393,36.495 342.528,37.796 C341.663,39.09 340.62,40.183 339.401,41.069 C338.182,41.953 336.813,42.623 335.3,43.074 C333.784,43.526 332.2,43.756 330.548,43.756 C328.147,43.756 326.023,43.363 324.175,42.574 C322.323,41.786 320.76,40.687 319.482,39.27 C318.202,37.854 317.239,36.164 316.589,34.194 C315.944,32.226 315.617,30.062 315.617,27.702 C315.617,25.539 315.96,23.481 316.649,21.535 C317.339,19.586 318.322,17.875 319.601,16.401 C320.878,14.923 322.424,13.753 324.233,12.887 C326.043,12.022 328.091,11.588 330.372,11.588 C332.77,11.588 334.925,12.092 336.835,13.095 C338.743,14.098 340.326,15.427 341.586,17.078 C342.844,18.732 343.759,20.628 344.331,22.774 C344.9,24.92 345.048,27.131 344.772,29.414 L322.344,29.414 L322.344,29.414 Z"></path>
	<path d="M353.627,27.995 C353.627,29.293 353.793,30.575 354.131,31.832 C354.464,33.091 354.977,34.213 355.667,35.198 C356.351,36.18 357.227,36.966 358.289,37.558 C359.351,38.147 360.61,38.446 362.065,38.446 C363.562,38.446 364.85,38.127 365.931,37.497 C367.014,36.87 367.903,36.043 368.588,35.02 C369.276,33.997 369.788,32.847 370.122,31.57 C370.458,30.289 370.625,28.981 370.625,27.644 C370.625,24.258 369.866,21.622 368.352,19.735 C366.837,17.845 364.781,16.901 362.186,16.901 C360.61,16.901 359.282,17.225 358.201,17.875 C357.119,18.524 356.233,19.371 355.546,20.413 C354.856,21.455 354.364,22.634 354.069,23.953 C353.774,25.273 353.627,26.62 353.627,27.995 M377.118,42.93 L370.742,42.93 L370.742,38.797 L370.625,38.797 C369.718,40.57 368.401,41.836 366.67,42.604 C364.936,43.371 363.108,43.754 361.18,43.754 C358.78,43.754 356.684,43.332 354.898,42.488 C353.104,41.642 351.62,40.491 350.44,39.034 C349.26,37.578 348.373,35.856 347.785,33.868 C347.192,31.881 346.899,29.748 346.899,27.464 C346.899,24.711 347.273,22.328 348.02,20.323 C348.765,18.318 349.76,16.664 351.002,15.366 C352.239,14.069 353.659,13.114 355.251,12.504 C356.843,11.897 358.467,11.588 360.118,11.588 C361.061,11.588 362.027,11.678 363.01,11.857 C363.993,12.031 364.936,12.319 365.844,12.709 C366.749,13.103 367.587,13.607 368.352,14.216 C369.118,14.827 369.76,15.543 370.269,16.37 L370.389,16.37 L370.389,0.787 L377.118,0.787 L377.118,42.93"></path>
	<path d="M235.406,4.323 C235.406,6.262 233.831,7.838 231.889,7.838 C229.946,7.838 228.373,6.262 228.373,4.323 C228.373,2.379 229.946,0.805 231.889,0.805 C233.831,0.805 235.406,2.379 235.406,4.323"></path>
	<path d="M294.619,4.323 C294.619,6.262 293.044,7.838 291.101,7.838 C289.158,7.838 287.586,6.262 287.586,4.323 C287.586,2.379 289.158,0.805 291.101,0.805 C293.044,0.805 294.619,2.379 294.619,4.323"></path>
	<path d="M398.609,39.41 C398.609,41.352 397.033,42.928 395.092,42.928 C393.147,42.928 391.575,41.352 391.575,39.41 C391.575,37.47 393.147,35.894 395.092,35.894 C397.033,35.894 398.609,37.47 398.609,39.41"></path>
	<path d="M388.055,39.41 C388.055,41.352 386.48,42.928 384.539,42.928 C382.596,42.928 381.023,41.352 381.023,39.41 C381.023,37.47 382.596,35.894 384.539,35.894 C386.48,35.894 388.055,37.47 388.055,39.41"></path>
	<path d="M409.163,39.41 C409.163,41.352 407.587,42.928 405.645,42.928 C403.701,42.928 402.129,41.352 402.129,39.41 C402.129,37.47 403.701,35.894 405.645,35.894 C407.587,35.894 409.163,37.47 409.163,39.41"></path>
	<polygon points="287.739 42.93 294.464 42.93 294.464 12.415 287.739 12.415"></polygon>
</svg>
