<?xml version="1.0" encoding="UTF-8" standalone="no"?>
<svg viewBox="0 0 268 268" version="1.1" xmlns="http://www.w3.org/2000/svg" xmlns:xlink="http://www.w3.org/1999/xlink">

    <g stroke="none" stroke-width="1" fill="none" fill-rule="evenodd">
        <g transform="translate(-123.000000, -112.000000)" fill="#3b5998">
            <path d="M375.716,112.553 L138.284,112.553 C130.146,112.553 123.553,119.146 123.553,127.283 L123.553,364.717 C123.553,372.852 130.146,379.447 138.284,379.447 L266.109,379.447 L266.109,276.092 L231.328,276.092 L231.328,235.812 L266.109,235.812 L266.109,206.107 C266.109,171.634 287.163,152.863 317.916,152.863 C332.646,152.863 345.306,153.96 348.997,154.45 L348.997,190.476 L327.667,190.486 C310.943,190.486 307.705,198.433 307.705,210.095 L307.705,235.812 L347.591,235.812 L342.397,276.092 L307.705,276.092 L307.705,379.447 L375.716,379.447 C383.851,379.447 390.446,372.852 390.446,364.717 L390.446,127.283 C390.446,119.146 383.851,112.553 375.716,112.553"></path>
        </g>
    </g>
</svg>
