<?xml version="1.0" encoding="UTF-8" standalone="no"?>
<svg width="31px" height="31px" viewBox="0 0 31 31" version="1.1" xmlns="http://www.w3.org/2000/svg" xmlns:xlink="http://www.w3.org/1999/xlink">
    <g stroke="none" stroke-width="1" fill="#022456" fill-rule="evenodd">
        <path d="M15.5,4.43594643 C19.1035357,4.43594643 19.5303393,4.44966071 20.9534107,4.51458929 C22.2692321,4.57464286 22.9838214,4.7945 23.4594286,4.97926786 C24.0893214,5.22408929 24.5389464,5.51658929 25.0111786,5.98882143 C25.4834107,6.46105357 25.7759107,6.91067857 26.0206786,7.54057143 C26.2055,8.01617857 26.4253571,8.73076786 26.4854107,10.0465357 C26.5503393,11.4696607 26.5640536,11.8964643 26.5640536,15.5 C26.5640536,19.1035357 26.5503393,19.5303393 26.4854107,20.9534107 C26.4253571,22.2692321 26.2055,22.9838214 26.0206786,23.4594286 C25.7759107,24.0893214 25.4834107,24.5389464 25.0111786,25.0111786 C24.5389464,25.4834107 24.0893214,25.7759107 23.4594286,26.0206786 C22.9838214,26.2055 22.2692321,26.4253571 20.9534107,26.4854107 C19.5305536,26.5503393 19.10375,26.5640536 15.5,26.5640536 C11.89625,26.5640536 11.4694464,26.5503393 10.0465893,26.4854107 C8.73076786,26.4253571 8.01617857,26.2055 7.540625,26.0206786 C6.91067857,25.7759107 6.46105357,25.4834107 5.98882143,25.0111786 C5.51658929,24.5389464 5.22408929,24.0893214 4.97932143,23.4594286 C4.7945,22.9838214 4.57464286,22.2692321 4.51458929,20.9534643 C4.44966071,19.5303393 4.43594643,19.1035357 4.43594643,15.5 C4.43594643,11.8964643 4.44966071,11.4696607 4.51458929,10.0465893 C4.57464286,8.73076786 4.7945,8.01617857 4.97932143,7.54057143 C5.22408929,6.91067857 5.51658929,6.46105357 5.98882143,5.98882143 C6.46105357,5.51658929 6.91067857,5.22408929 7.540625,4.97926786 C8.01617857,4.7945 8.73076786,4.57464286 10.0465357,4.51458929 C11.4696607,4.44966071 11.8964643,4.43594643 15.5,4.43594643 M15.5,2.00423214 C11.83475,2.00423214 11.3752143,2.01976786 9.93575,2.08544643 C8.49923214,2.15101786 7.51823214,2.379125 6.65975,2.71276786 C5.77228571,3.05766071 5.01966071,3.519125 4.26939286,4.26939286 C3.519125,5.01966071 3.05766071,5.77228571 2.71276786,6.65975 C2.379125,7.51823214 2.15101786,8.49923214 2.08544643,9.93575 C2.01976786,11.3751607 2.00428571,11.83475 2.00428571,15.5 C2.00428571,19.16525 2.01976786,19.6248393 2.08544643,21.06425 C2.15101786,22.5007679 2.379125,23.4817679 2.71276786,24.34025 C3.05766071,25.2276607 3.519125,25.9803393 4.26939286,26.7306071 C5.01966071,27.480875 5.77228571,27.9423393 6.65975,28.2872321 C7.51823214,28.620875 8.49923214,28.8489821 9.93575,28.9145536 C11.3752143,28.9802321 11.83475,28.9957143 15.5,28.9957143 C19.16525,28.9957143 19.6248393,28.9802321 21.06425,28.9145536 C22.5007679,28.8489821 23.4817679,28.620875 24.34025,28.2872321 C25.2277143,27.9423393 25.9803393,27.480875 26.7306071,26.7306071 C27.480875,25.9803393 27.9423393,25.2277143 28.2872321,24.34025 C28.620875,23.4817679 28.8489821,22.5007679 28.9145536,21.06425 C28.9802321,19.6248393 28.9957679,19.16525 28.9957679,15.5 C28.9957679,11.83475 28.9802321,11.3751607 28.9145536,9.93575 C28.8489821,8.49923214 28.620875,7.51823214 28.2872321,6.65975 C27.9423393,5.77228571 27.480875,5.01966071 26.7306071,4.26939286 C25.9803393,3.519125 25.2277143,3.05766071 24.34025,2.71276786 C23.4817679,2.379125 22.5007679,2.15101786 21.06425,2.08544643 C19.6248393,2.01976786 19.16525,2.00423214 15.5,2.00423214"></path>
        <path d="M15.5,8.56973214 C11.6725357,8.56973214 8.56973214,11.6725357 8.56973214,15.5 C8.56973214,19.3274643 11.6725357,22.4302679 15.5,22.4302679 C19.3274643,22.4302679 22.4302679,19.3274643 22.4302679,15.5 C22.4302679,11.6725357 19.3274643,8.56973214 15.5,8.56973214 L15.5,8.56973214 Z M15.5,19.9986071 C13.0155179,19.9986071 11.0013929,17.9844821 11.0013929,15.5 C11.0013929,13.0155179 13.0155179,11.0013929 15.5,11.0013929 C17.9844821,11.0013929 19.9986071,13.0155179 19.9986071,15.5 C19.9986071,17.9844821 17.9844821,19.9986071 15.5,19.9986071 L15.5,19.9986071 Z"></path>
        <path d="M24.3235357,8.29592857 C24.3235357,9.19035714 23.5985,9.91544643 22.7040714,9.91544643 C21.8096429,9.91544643 21.0845536,9.19035714 21.0845536,8.29592857 C21.0845536,7.4015 21.8096429,6.67646429 22.7040714,6.67646429 C23.5985,6.67646429 24.3235357,7.4015 24.3235357,8.29592857"></path>
    </g>
</svg>
